<svg id="visual" viewBox="0 0 900 600" width="900" height="600" xmlns="http://www.w3.org/2000/svg" xmlns:xlink="http://www.w3.org/1999/xlink" version="1.1"><g><g transform="translate(430 16)"><path d="M0 -54.2L47 -27.1L47 27.1L0 54.2L-47 27.1L-47 -27.1Z" fill="none" stroke="#2b93c4" stroke-width="2"></path></g><g transform="translate(726 441)"><path d="M0 -53L45.9 -26.5L45.9 26.5L0 53L-45.9 26.5L-45.9 -26.5Z" fill="none" stroke="#2b93c4" stroke-width="2"></path></g><g transform="translate(236 538)"><path d="M0 -46L39.8 -23L39.8 23L0 46L-39.8 23L-39.8 -23Z" fill="none" stroke="#2b93c4" stroke-width="2"></path></g><g transform="translate(468 372)"><path d="M0 -45L39 -22.5L39 22.5L0 45L-39 22.5L-39 -22.5Z" fill="none" stroke="#2b93c4" stroke-width="2"></path></g><g transform="translate(876 457)"><path d="M0 -49L42.4 -24.5L42.4 24.5L0 49L-42.4 24.5L-42.4 -24.5Z" fill="none" stroke="#2b93c4" stroke-width="2"></path></g><g transform="translate(336 369)"><path d="M0 -34L29.4 -17L29.4 17L0 34L-29.4 17L-29.4 -17Z" fill="none" stroke="#2b93c4" stroke-width="2"></path></g><g transform="translate(637 297)"><path d="M0 -39L33.8 -19.5L33.8 19.5L0 39L-33.8 19.5L-33.8 -19.5Z" fill="none" stroke="#2b93c4" stroke-width="2"></path></g><g transform="translate(432 553)"><path d="M0 -40L34.6 -20L34.6 20L0 40L-34.6 20L-34.6 -20Z" fill="none" stroke="#2b93c4" stroke-width="2"></path></g><g transform="translate(142 240)"><path d="M0 -41L35.5 -20.5L35.5 20.5L0 41L-35.5 20.5L-35.5 -20.5Z" fill="none" stroke="#2b93c4" stroke-width="2"></path></g><g transform="translate(488 261)"><path d="M0 -50L43.3 -25L43.3 25L0 50L-43.3 25L-43.3 -25Z" stroke="#2b93c4" fill="none" stroke-width="2"></path></g><g transform="translate(818 147)"><path d="M0 -35L30.3 -17.5L30.3 17.5L0 35L-30.3 17.5L-30.3 -17.5Z" stroke="#2b93c4" fill="none" stroke-width="2"></path></g><g transform="translate(124 83)"><path d="M0 -46L39.8 -23L39.8 23L0 46L-39.8 23L-39.8 -23Z" stroke="#2b93c4" fill="none" stroke-width="2"></path></g><g transform="translate(630 171)"><path d="M0 -48L41.6 -24L41.6 24L0 48L-41.6 24L-41.6 -24Z" stroke="#2b93c4" fill="none" stroke-width="2"></path></g></g></svg>